<?xml version="1.0" standalone="no"?><!DOCTYPE svg PUBLIC "-//W3C//DTD SVG 1.1//EN" "http://www.w3.org/Graphics/SVG/1.1/DTD/svg11.dtd"><svg t="1600149474888" class="icon" viewBox="0 0 1024 1024" version="1.1" xmlns="http://www.w3.org/2000/svg" p-id="1699" width="20" height="20" xmlns:xlink="http://www.w3.org/1999/xlink"><defs><style type="text/css"></style></defs><path d="M738.5631 491.7074c-12.7171-3.8134-21.4333-6.4041-14.764-23.1086 14.4108-36.2619 15.9089-67.5502 0.2714-89.8652-29.3069-41.8775-109.4871-39.6083-201.3911-1.1295 0-0.0502-28.8573 12.6269-21.4866-10.2687 14.1414-45.4431 12.0125-83.5185-9.9891-105.4894-49.8688-49.8985-182.4645 1.8821-296.1684 115.5533C109.8813 462.5736 60.4365 552.8228 60.4365 630.8721c0 149.2818 191.4348 240.0399 378.7151 240.0399 245.5153 0 408.832-142.6442 408.832-255.8945C847.9826 546.5948 790.3447 507.7627 738.5631 491.7074zM454.2095 832.4516c-149.4436 14.7456-309.7334-91.7832-319.4429-189.9028-9.7065-98.0992 118.2915-181.7016 268.1958-190.379 175.6856-10.1693 325.5982 72.9928 335.2852 171.0705C747.9409 721.3885 603.6726 817.665 454.2095 832.4516z" p-id="1700"></path><path d="M901.5982 218.5165c-59.2896-65.7347-146.7443-90.794-227.4611-73.6307l-0.032768 0c-18.6798 3.9977-30.5879 22.3744-26.5882 41.0173 3.9803 18.6593 22.3498 30.5838 41.0296 26.6015 57.4228-12.1948 119.5704 5.6412 161.7172 52.3377 42.111 46.6903 53.547 110.379 35.5123 166.2065l0.0113 0.0113c-5.8798 18.1883 4.0684 37.6433 22.2751 43.522 18.1361 5.8737 37.633-4.0632 43.5169-22.2065 0-0.0338 0-0.1034 0.0113-0.1331C976.894 373.7078 960.9052 284.1856 901.5982 218.5165" p-id="1701"></path><path d="M810.5492 300.6812c-28.8553-32.0133-71.466-44.1723-110.7978-35.8093-16.0758 3.4253-26.3219 19.2471-22.8741 35.3393 3.4376 16.0205 19.2481 26.3168 35.286 22.8239l0 0.032768c19.2246-4.0632 40.0722 1.8657 54.1798 17.4879 14.123 15.6529 17.9169 36.9787 11.8579 55.6954l0.029696 0c-5.0371 15.6201 3.5133 32.4178 19.1478 37.4774 15.6385 5.0043 32.4127-3.5205 37.462-19.1805C847.1992 376.2964 839.466 332.6904 810.5492 300.6812" p-id="1702"></path><path d="M454.5905 537.6225c-71.1158-18.5006-151.4916 16.939-182.3805 79.5976-31.4604 63.9099-1.0404 134.8506 70.8076 158.0411 74.4223 23.9974 162.1443-12.7775 192.6441-81.7644C565.7395 626.0716 528.1812 556.6423 454.5905 537.6225zM400.2867 700.8266c-14.4568 23.0615-45.4093 33.1663-68.7227 22.5198-22.9786-10.4622-29.7605-37.2439-15.3037-59.7309 14.2797-22.3918 44.1948-32.3676 67.3341-22.6683C407.0052 650.9271 414.4804 677.5378 400.2867 700.8266zM447.9058 639.7123c-5.2285 8.9283-16.7823 13.2311-25.8335 9.5048-8.9016-3.6598-11.691-13.6571-6.6314-22.4369 5.204-8.7347 16.3082-13.0028 25.1884-9.4771C449.6517 620.6024 452.8927 630.7113 447.9058 639.7123z" p-id="1703"></path></svg>